<?xml version="1.0" standalone="no"?>
<!DOCTYPE svg PUBLIC "-//W3C//DTD SVG 20010904//EN"
 "http://www.w3.org/TR/2001/REC-SVG-20010904/DTD/svg10.dtd">
<svg version="1.0" xmlns="http://www.w3.org/2000/svg"
 width="1703.000000pt" height="1703.000000pt" viewBox="0 0 1703.000000 1703.000000"
 preserveAspectRatio="xMidYMid meet">

<g transform="translate(0.000000,1703.000000) scale(0.100000,-0.100000)"
fill="#000000" stroke="none">
<path d="M8575 14223 c-34 -18 -2014 -1158 -3745 -2156 -630 -363 -1153 -666
-1163 -675 -16 -15 -17 -118 -15 -2091 3 -1955 4 -2078 20 -2108 44 -80 149
-114 241 -79 34 13 323 297 1537 1511 822 822 1499 1495 1505 1495 6 0 326
-316 713 -703 l702 -702 -686 -685 c-377 -377 -692 -698 -701 -714 -20 -37
-20 -114 0 -152 42 -81 149 -118 224 -76 17 9 713 696 1547 1525 833 830 1520
1507 1525 1505 5 -1 683 -675 1506 -1496 972 -970 1508 -1498 1530 -1508 44
-18 128 -18 163 0 34 18 65 51 86 93 15 29 16 216 16 2107 l0 2074 -117 68
c-65 37 -593 342 -1173 677 -1532 886 -3662 2107 -3674 2107 -6 -1 -24 -8 -41
-17z m159 -432 c535 -311 2614 -1511 3441 -1986 572 -328 1046 -602 1053 -609
9 -9 12 -372 10 -1773 l-3 -1761 -1480 1473 -1480 1474 -827 -827 -827 -826
-830 826 -831 826 -1471 -1466 c-809 -807 -1477 -1468 -1485 -1470 -12 -3 -14
256 -12 1758 l3 1761 1170 673 c644 370 1681 969 2305 1330 624 361 1141 656
1149 656 8 0 60 -26 115 -59z"/>
<path d="M5480 5369 c-234 -27 -435 -124 -586 -280 -112 -118 -179 -232 -234
-398 -49 -151 -63 -269 -57 -475 4 -159 9 -195 35 -298 82 -316 261 -545 524
-667 271 -127 634 -128 902 -3 223 105 369 256 485 504 27 57 46 106 42 110
-6 7 -461 198 -472 198 -3 0 -13 -24 -23 -52 -52 -147 -134 -256 -229 -304
-100 -51 -243 -66 -368 -40 -183 39 -303 159 -361 361 -30 107 -33 373 -5 475
43 152 131 271 239 324 199 97 494 58 616 -82 33 -38 68 -108 87 -177 31 -106
5 -106 275 3 132 53 240 102 240 107 0 29 -106 237 -157 307 -211 293 -555
433 -953 387z"/>
<path d="M7737 5344 c-4 -4 -7 -493 -7 -1086 l0 -1078 253 2 252 3 5 585 c4
462 8 581 17 565 7 -11 154 -274 326 -585 l315 -565 251 -3 251 -2 0 1085 0
1085 -247 -2 -248 -3 -3 -582 c-1 -321 -5 -583 -10 -583 -4 0 -154 262 -333
583 l-326 582 -245 3 c-134 1 -247 -1 -251 -4z"/>
<path d="M10755 5338 c-3 -7 -4 -494 -3 -1083 l3 -1070 258 -3 257 -2 0 420 0
420 345 0 345 0 2 -417 3 -418 258 -3 257 -2 -2 1082 -3 1083 -255 0 -255 0
-3 -417 -2 -418 -345 0 -345 0 -2 418 -3 417 -253 3 c-197 2 -254 0 -257 -10z"/>
</g>
</svg>
